<svg aria-hidden="true" style="position: absolute; width: 0; height: 0; overflow: hidden;" version="1.1" xmlns="http://www.w3.org/2000/svg" xmlns:xlink="http://www.w3.org/1999/xlink">
<defs>
<symbol id="icon-Logo" viewBox="0 0 204 24">
<path fill="#475467" style="fill: var(--color1, #475467)" d="M203.089 10.781h-5.412c-0.029-0.334-0.146-0.621-0.353-0.863-0.206-0.241-0.473-0.426-0.798-0.554-0.321-0.135-0.675-0.202-1.067-0.202-0.504 0-0.938 0.092-1.299 0.277-0.363 0.185-0.54 0.447-0.532 0.788-0.007 0.241 0.096 0.465 0.309 0.671 0.219 0.206 0.642 0.366 1.267 0.479l3.324 0.597c1.675 0.305 2.922 0.82 3.739 1.545 0.823 0.717 1.239 1.68 1.246 2.887-0.007 1.165-0.356 2.177-1.044 3.036-0.683 0.852-1.617 1.513-2.802 1.981-1.179 0.462-2.526 0.692-4.038 0.692-2.5 0-4.457-0.511-5.869-1.534-1.407-1.023-2.191-2.372-2.355-4.048h5.838c0.078 0.519 0.334 0.92 0.766 1.204 0.441 0.277 0.995 0.415 1.662 0.415 0.54 0 0.984-0.092 1.332-0.277 0.356-0.185 0.537-0.447 0.543-0.788-0.006-0.313-0.163-0.561-0.468-0.746-0.299-0.185-0.768-0.334-1.407-0.447l-2.897-0.511c-1.67-0.291-2.919-0.845-3.75-1.662s-1.244-1.868-1.236-3.153c-0.007-1.136 0.291-2.099 0.894-2.887 0.611-0.795 1.481-1.399 2.61-1.811 1.137-0.419 2.483-0.629 4.038-0.629 2.365 0 4.23 0.49 5.594 1.47 1.371 0.98 2.091 2.337 2.163 4.070z"></path>
<path fill="#475467" style="fill: var(--color1, #475467)" d="M174.623 17.94l0.042-6.989h0.768l3.963-5.497h6.605l-6.648 8.565h-1.662l-3.067 3.92zM169.338 21.818v-21.818h5.882v21.818h-5.882zM179.438 21.818l-3.75-6.477 3.835-4.176 6.648 10.653h-6.733z"></path>
<path fill="#475467" style="fill: var(--color1, #475467)" d="M158.428 22.116c-1.776 0-3.296-0.352-4.56-1.055-1.264-0.71-2.233-1.697-2.909-2.962-0.675-1.271-1.012-2.745-1.012-4.421s0.337-3.146 1.012-4.411c0.675-1.271 1.644-2.259 2.909-2.962 1.264-0.71 2.784-1.065 4.56-1.065 1.605 0 2.993 0.291 4.166 0.874 1.179 0.575 2.091 1.392 2.737 2.45 0.647 1.051 0.974 2.287 0.98 3.707h-5.454c-0.078-0.859-0.327-1.513-0.745-1.96-0.413-0.455-0.945-0.682-1.597-0.682-0.512 0-0.96 0.149-1.343 0.447-0.384 0.291-0.683 0.735-0.895 1.332-0.213 0.589-0.319 1.332-0.319 2.227s0.106 1.641 0.319 2.237c0.213 0.59 0.512 1.033 0.895 1.332 0.382 0.291 0.831 0.437 1.343 0.437 0.432 0 0.816-0.099 1.15-0.298 0.333-0.206 0.603-0.504 0.809-0.895 0.213-0.398 0.342-0.881 0.384-1.449h5.454c-0.021 1.442-0.351 2.699-0.99 3.771-0.639 1.065-1.545 1.889-2.717 2.472-1.165 0.582-2.557 0.874-4.176 0.874z"></path>
<path fill="#475467" style="fill: var(--color1, #475467)" d="M141.073 14.659v-9.205h5.881v16.364h-5.582v-3.111h-0.171c-0.355 1.044-0.977 1.861-1.864 2.45-0.888 0.582-1.942 0.874-3.164 0.874-1.143 0-2.145-0.263-3.004-0.788-0.852-0.526-1.516-1.25-1.992-2.173-0.469-0.923-0.707-1.982-0.714-3.175v-10.44h5.881v9.205c0.007 0.81 0.213 1.445 0.618 1.907 0.412 0.462 0.987 0.693 1.726 0.693 0.49 0 0.913-0.103 1.268-0.309 0.362-0.213 0.639-0.511 0.831-0.895 0.199-0.391 0.295-0.856 0.288-1.396z"></path>
<path fill="#475467" style="fill: var(--color1, #475467)" d="M116.855 21.818v-16.364h5.71v3.111h0.17c0.298-1.151 0.771-1.992 1.417-2.525 0.653-0.533 1.417-0.799 2.29-0.799 0.256 0 0.508 0.021 0.756 0.064 0.256 0.036 0.501 0.089 0.735 0.16v5.018c-0.291-0.099-0.65-0.174-1.076-0.224s-0.792-0.075-1.097-0.075c-0.575 0-1.094 0.131-1.556 0.394-0.454 0.256-0.813 0.618-1.076 1.087-0.263 0.462-0.394 1.005-0.394 1.63v8.523h-5.881z"></path>
<path fill="#475467" style="fill: var(--color1, #475467)" d="M96.676 4.773v-4.773h18.963v4.773h-6.563v17.046h-5.838v-17.046h-6.563z"></path>
<path fill="#101828" style="fill: var(--color2, #101828)" d="M93.762 0v21.818h-5.881v-21.818h5.881z"></path>
<path fill="#101828" style="fill: var(--color2, #101828)" d="M76.87 22.116c-1.747 0-3.253-0.334-4.517-1.001-1.257-0.675-2.227-1.641-2.908-2.898-0.675-1.264-1.012-2.777-1.012-4.538 0-1.69 0.341-3.168 1.023-4.432s1.644-2.248 2.887-2.951c1.243-0.703 2.71-1.055 4.4-1.055 1.236 0 2.354 0.192 3.356 0.575s1.857 0.941 2.567 1.673c0.71 0.724 1.257 1.605 1.641 2.642s0.575 2.205 0.575 3.505v1.364h-14.616v-3.239h9.204c-0.007-0.469-0.128-0.881-0.362-1.236-0.227-0.362-0.536-0.643-0.927-0.842-0.384-0.206-0.82-0.309-1.31-0.309-0.476 0-0.913 0.103-1.31 0.309-0.398 0.199-0.717 0.476-0.959 0.831-0.234 0.355-0.359 0.771-0.373 1.246v3.494c0 0.525 0.11 0.994 0.33 1.406s0.536 0.735 0.948 0.969c0.412 0.234 0.909 0.351 1.491 0.351 0.405 0 0.774-0.057 1.108-0.17 0.341-0.114 0.632-0.277 0.874-0.49 0.242-0.22 0.419-0.483 0.533-0.788h5.369c-0.185 1.136-0.621 2.124-1.31 2.962-0.689 0.831-1.602 1.477-2.738 1.939-1.129 0.455-2.45 0.682-3.963 0.682z"></path>
<path fill="#101828" style="fill: var(--color2, #101828)" d="M67.255 5.455l-5.497 16.364h-6.818l-5.497-16.364h6.179l2.642 10.824h0.17l2.642-10.824h6.179z"></path>
<path fill="#101828" style="fill: var(--color2, #101828)" d="M37.584 22.074c-1.044 0-1.967-0.17-2.77-0.511-0.795-0.348-1.42-0.874-1.875-1.577s-0.682-1.598-0.682-2.685c0-0.895 0.153-1.658 0.458-2.29 0.305-0.639 0.732-1.161 1.278-1.566s1.182-0.714 1.907-0.927c0.732-0.213 1.52-0.352 2.365-0.415 0.916-0.071 1.651-0.156 2.205-0.256 0.561-0.107 0.966-0.252 1.215-0.437 0.249-0.192 0.373-0.444 0.373-0.756v-0.043c0-0.426-0.163-0.753-0.49-0.98s-0.746-0.341-1.257-0.341c-0.561 0-1.019 0.124-1.374 0.373-0.348 0.241-0.558 0.614-0.629 1.119h-5.412c0.071-0.994 0.387-1.911 0.948-2.749 0.568-0.845 1.396-1.52 2.482-2.024 1.087-0.511 2.443-0.767 4.069-0.767 1.172 0 2.223 0.138 3.153 0.415 0.93 0.27 1.722 0.65 2.376 1.14 0.653 0.483 1.151 1.051 1.491 1.705 0.348 0.646 0.522 1.349 0.522 2.109v11.207h-5.497v-2.301h-0.128c-0.327 0.611-0.724 1.104-1.193 1.481-0.462 0.376-0.991 0.65-1.587 0.82-0.59 0.17-1.239 0.256-1.95 0.256zM39.502 18.366c0.447 0 0.867-0.092 1.257-0.277 0.398-0.185 0.721-0.451 0.969-0.799s0.373-0.771 0.373-1.268v-1.364c-0.156 0.064-0.323 0.124-0.501 0.181-0.171 0.057-0.355 0.11-0.554 0.16-0.192 0.050-0.398 0.096-0.618 0.138-0.213 0.043-0.437 0.082-0.671 0.117-0.455 0.071-0.827 0.188-1.119 0.351-0.284 0.156-0.497 0.352-0.639 0.586-0.135 0.227-0.202 0.483-0.202 0.767 0 0.455 0.16 0.803 0.479 1.044s0.728 0.362 1.225 0.362z"></path>
<path fill="#101828" style="fill: var(--color2, #101828)" d="M20.178 21.818v-16.364h5.71v3.111h0.17c0.298-1.151 0.771-1.992 1.417-2.525 0.653-0.533 1.417-0.799 2.291-0.799 0.256 0 0.508 0.021 0.756 0.064 0.256 0.036 0.501 0.089 0.735 0.16v5.018c-0.291-0.099-0.65-0.174-1.076-0.224s-0.792-0.075-1.097-0.075c-0.575 0-1.094 0.131-1.555 0.394-0.455 0.256-0.813 0.618-1.076 1.087-0.263 0.462-0.394 1.005-0.394 1.63v8.523h-5.881z"></path>
<path fill="#101828" style="fill: var(--color2, #101828)" d="M0 4.773v-4.773h18.963v4.773h-6.562v17.046h-5.838v-17.046h-6.563z"></path>
</symbol>
</defs>
</svg>
