<svg aria-hidden="true" style="position: absolute; width: 0; height: 0; overflow: hidden;" version="1.1" xmlns="http://www.w3.org/2000/svg" xmlns:xlink="http://www.w3.org/1999/xlink">
<defs>
<symbol id="icon-Logo" viewBox="0 0 204 24">
<path fill="#475467" style="fill: var(--color1, #475467)" d="M203.089 10.781h-5.412c-0.029-0.334-0.146-0.621-0.353-0.863-0.206-0.241-0.473-0.426-0.798-0.554-0.321-0.135-0.675-0.202-1.067-0.202-0.504 0-0.938 0.092-1.299 0.277-0.363 0.185-0.54 0.447-0.532 0.788-0.007 0.241 0.096 0.465 0.309 0.671 0.219 0.206 0.642 0.366 1.267 0.479l3.324 0.597c1.675 0.305 2.922 0.82 3.739 1.545 0.823 0.717 1.239 1.68 1.246 2.887-0.007 1.165-0.356 2.177-1.044 3.036-0.683 0.852-1.617 1.513-2.802 1.981-1.179 0.462-2.526 0.692-4.038 0.692-2.5 0-4.457-0.511-5.869-1.534-1.407-1.023-2.191-2.372-2.355-4.048h5.838c0.078 0.519 0.334 0.92 0.766 1.204 0.441 0.277 0.995 0.415 1.662 0.415 0.54 0 0.984-0.092 1.332-0.277 0.356-0.185 0.537-0.447 0.543-0.788-0.006-0.313-0.163-0.561-0.468-0.746-0.299-0.185-0.768-0.334-1.407-0.447l-2.897-0.511c-1.67-0.291-2.919-0.845-3.75-1.662s-1.244-1.868-1.236-3.153c-0.007-1.136 0.291-2.099 0.894-2.887 0.611-0.795 1.481-1.399 2.61-1.811 1.137-0.419 2.483-0.629 4.038-0.629 2.365 0 4.23 0.49 5.594 1.47 1.371 0.98 2.091 2.337 2.163 4.070z"></path>
<path fill="#475467" style="fill: var(--color1, #475467)" d="M174.623 17.94l0.042-6.989h0.768l3.963-5.497h6.605l-6.648 8.565h-1.662l-3.067 3.92zM169.338 21.818v-21.818h5.882v21.818h-5.882zM179.438 21.818l-3.75-6.477 3.835-4.176 6.648 10.653h-6.733z"></path>
<path fill="#475467" style="fill: var(--color1, #475467)" d="M158.428 22.116c-1.776 0-3.296-0.352-4.56-1.055-1.264-0.71-2.233-1.697-2.909-2.962-0.675-1.271-1.012-2.745-1.012-4.421s0.337-3.146 1.012-4.411c0.675-1.271 1.644-2.259 2.909-2.962 1.264-0.71 2.784-1.065 4.56-1.065 1.605 0 2.993 0.291 4.166 0.874 1.179 0.575 2.091 1.392 2.737 2.45 0.647 1.051 0.974 2.287 0.98 3.707h-5.454c-0.078-0.859-0.327-1.513-0.745-1.96-0.413-0.455-0.945-0.682-1.597-0.682-0.512 0-0.96 0.149-1.343 0.447-0.384 0.291-0.683 0.735-0.895 1.332-0.213 0.589-0.319 1.332-0.319 2.227s0.106 1.641 0.319 2.237c0.213 0.59 0.512 1.033 0.895 1.332 0.382 0.291 0.831 0.437 1.343 0.437 0.432 0 0.816-0.099 1.15-0.298 0.333-0.206 0.603-0.504 0.809-0.895 0.213-0.398 0.342-0.881 0.384-1.449h5.454c-0.021 1.442-0.351 2.699-0.99 3.771-0.639 1.065-1.545 1.889-2.717 2.472-1.165 0.582-2.557 0.874-4.176 0.874z"></path>
<path fill="#475467" style="fill: var(--color1, #475467)" d="M141.073 14.659v-9.205h5.881v16.364h-5.582v-3.111h-0.171c-0.355 1.044-0.977 1.861-1.864 2.45-0.888 0.582-1.942 0.874-3.164 0.874-1.143 0-2.145-0.263-3.004-0.788-0.852-0.526-1.516-1.25-1.992-2.173-0.469-0.923-0.707-1.982-0.714-3.175v-10.44h5.881v9.205c0.007 0.81 0.213 1.445 0.618 1.907 0.412 0.462 0.987 0.693 1.726 0.693 0.49 0 0.913-0.103 1.268-0.309 0.362-0.213 0.639-0.511 0.831-0.895 0.199-0.391 0.295-0.856 0.288-1.396z"></path>
<path fill="#475467" style="fill: var(--color1, #475467)" d="M116.855 21.818v-16.364h5.71v3.111h0.17c0.298-1.151 0.771-1.992 1.417-2.525 0.653-0.533 1.417-0.799 2.29-0.799 0.256 0 0.508 0.021 0.756 0.064 0.256 0.036 0.501 0.089 0.735 0.16v5.018c-0.291-0.099-0.65-0.174-1.076-0.224s-0.792-0.075-1.097-0.075c-0.575 0-1.094 0.131-1.556 0.394-0.454 0.256-0.813 0.618-1.076 1.087-0.263 0.462-0.394 1.005-0.394 1.63v8.523h-5.881z"></path>
<path fill="#475467" style="fill: var(--color1, #475467)" d="M96.676 4.773v-4.773h18.963v4.773h-6.563v17.046h-5.838v-17.046h-6.563z"></path>
<path fill="#101828" style="fill: var(--color2, #101828)" d="M93.762 0v21.818h-5.881v-21.818h5.881z"></path>
<path fill="#101828" style="fill: var(--color2, #101828)" d="M76.87 22.116c-1.747 0-3.253-0.334-4.517-1.001-1.257-0.675-2.227-1.641-2.908-2.898-0.675-1.264-1.012-2.777-1.012-4.538 0-1.69 0.341-3.168 1.023-4.432s1.644-2.248 2.887-2.951c1.243-0.703 2.71-1.055 4.4-1.055 1.236 0 2.354 0.192 3.356 0.575s1.857 0.941 2.567 1.673c0.71 0.724 1.257 1.605 1.641 2.642s0.575 2.205 0.575 3.505v1.364h-14.616v-3.239h9.204c-0.007-0.469-0.128-0.881-0.362-1.236-0.227-0.362-0.536-0.643-0.927-0.842-0.384-0.206-0.82-0.309-1.31-0.309-0.476 0-0.913 0.103-1.31 0.309-0.398 0.199-0.717 0.476-0.959 0.831-0.234 0.355-0.359 0.771-0.373 1.246v3.494c0 0.525 0.11 0.994 0.33 1.406s0.536 0.735 0.948 0.969c0.412 0.234 0.909 0.351 1.491 0.351 0.405 0 0.774-0.057 1.108-0.17 0.341-0.114 0.632-0.277 0.874-0.49 0.242-0.22 0.419-0.483 0.533-0.788h5.369c-0.185 1.136-0.621 2.124-1.31 2.962-0.689 0.831-1.602 1.477-2.738 1.939-1.129 0.455-2.45 0.682-3.963 0.682z"></path>
<path fill="#101828" style="fill: var(--color2, #101828)" d="M67.255 5.455l-5.497 16.364h-6.818l-5.497-16.364h6.179l2.642 10.824h0.17l2.642-10.824h6.179z"></path>
<path fill="#101828" style="fill: var(--color2, #101828)" d="M37.584 22.074c-1.044 0-1.967-0.17-2.77-0.511-0.795-0.348-1.42-0.874-1.875-1.577s-0.682-1.598-0.682-2.685c0-0.895 0.153-1.658 0.458-2.29 0.305-0.639 0.732-1.161 1.278-1.566s1.182-0.714 1.907-0.927c0.732-0.213 1.52-0.352 2.365-0.415 0.916-0.071 1.651-0.156 2.205-0.256 0.561-0.107 0.966-0.252 1.215-0.437 0.249-0.192 0.373-0.444 0.373-0.756v-0.043c0-0.426-0.163-0.753-0.49-0.98s-0.746-0.341-1.257-0.341c-0.561 0-1.019 0.124-1.374 0.373-0.348 0.241-0.558 0.614-0.629 1.119h-5.412c0.071-0.994 0.387-1.911 0.948-2.749 0.568-0.845 1.396-1.52 2.482-2.024 1.087-0.511 2.443-0.767 4.069-0.767 1.172 0 2.223 0.138 3.153 0.415 0.93 0.27 1.722 0.65 2.376 1.14 0.653 0.483 1.151 1.051 1.491 1.705 0.348 0.646 0.522 1.349 0.522 2.109v11.207h-5.497v-2.301h-0.128c-0.327 0.611-0.724 1.104-1.193 1.481-0.462 0.376-0.991 0.65-1.587 0.82-0.59 0.17-1.239 0.256-1.95 0.256zM39.502 18.366c0.447 0 0.867-0.092 1.257-0.277 0.398-0.185 0.721-0.451 0.969-0.799s0.373-0.771 0.373-1.268v-1.364c-0.156 0.064-0.323 0.124-0.501 0.181-0.171 0.057-0.355 0.11-0.554 0.16-0.192 0.050-0.398 0.096-0.618 0.138-0.213 0.043-0.437 0.082-0.671 0.117-0.455 0.071-0.827 0.188-1.119 0.351-0.284 0.156-0.497 0.352-0.639 0.586-0.135 0.227-0.202 0.483-0.202 0.767 0 0.455 0.16 0.803 0.479 1.044s0.728 0.362 1.225 0.362z"></path>
<path fill="#101828" style="fill: var(--color2, #101828)" d="M20.178 21.818v-16.364h5.71v3.111h0.17c0.298-1.151 0.771-1.992 1.417-2.525 0.653-0.533 1.417-0.799 2.291-0.799 0.256 0 0.508 0.021 0.756 0.064 0.256 0.036 0.501 0.089 0.735 0.16v5.018c-0.291-0.099-0.65-0.174-1.076-0.224s-0.792-0.075-1.097-0.075c-0.575 0-1.094 0.131-1.555 0.394-0.455 0.256-0.813 0.618-1.076 1.087-0.263 0.462-0.394 1.005-0.394 1.63v8.523h-5.881z"></path>
<path fill="#101828" style="fill: var(--color2, #101828)" d="M0 4.773v-4.773h18.963v4.773h-6.562v17.046h-5.838v-17.046h-6.563z"></path>
</symbol>
<symbol id="icon-bi_grid" viewBox="0 0 24 24">
<path d="M1.5 3.75c0-0.597 0.237-1.169 0.659-1.591s0.994-0.659 1.591-0.659h4.5c0.597 0 1.169 0.237 1.591 0.659s0.659 0.994 0.659 1.591v4.5c0 0.597-0.237 1.169-0.659 1.591s-0.994 0.659-1.591 0.659h-4.5c-0.597 0-1.169-0.237-1.591-0.659s-0.659-0.994-0.659-1.591v-4.5zM3.75 3c-0.199 0-0.39 0.079-0.53 0.22s-0.22 0.331-0.22 0.53v4.5c0 0.199 0.079 0.39 0.22 0.53s0.331 0.22 0.53 0.22h4.5c0.199 0 0.39-0.079 0.53-0.22s0.22-0.331 0.22-0.53v-4.5c0-0.199-0.079-0.39-0.22-0.53s-0.331-0.22-0.53-0.22h-4.5zM13.5 3.75c0-0.597 0.237-1.169 0.659-1.591s0.994-0.659 1.591-0.659h4.5c0.597 0 1.169 0.237 1.591 0.659s0.659 0.994 0.659 1.591v4.5c0 0.597-0.237 1.169-0.659 1.591s-0.994 0.659-1.591 0.659h-4.5c-0.597 0-1.169-0.237-1.591-0.659s-0.659-0.994-0.659-1.591v-4.5zM15.75 3c-0.199 0-0.39 0.079-0.53 0.22s-0.22 0.331-0.22 0.53v4.5c0 0.199 0.079 0.39 0.22 0.53s0.331 0.22 0.53 0.22h4.5c0.199 0 0.39-0.079 0.53-0.22s0.22-0.331 0.22-0.53v-4.5c0-0.199-0.079-0.39-0.22-0.53s-0.331-0.22-0.53-0.22h-4.5zM1.5 15.75c0-0.597 0.237-1.169 0.659-1.591s0.994-0.659 1.591-0.659h4.5c0.597 0 1.169 0.237 1.591 0.659s0.659 0.994 0.659 1.591v4.5c0 0.597-0.237 1.169-0.659 1.591s-0.994 0.659-1.591 0.659h-4.5c-0.597 0-1.169-0.237-1.591-0.659s-0.659-0.994-0.659-1.591v-4.5zM3.75 15c-0.199 0-0.39 0.079-0.53 0.22s-0.22 0.331-0.22 0.53v4.5c0 0.199 0.079 0.39 0.22 0.53s0.331 0.22 0.53 0.22h4.5c0.199 0 0.39-0.079 0.53-0.22s0.22-0.331 0.22-0.53v-4.5c0-0.199-0.079-0.39-0.22-0.53s-0.331-0.22-0.53-0.22h-4.5zM13.5 15.75c0-0.597 0.237-1.169 0.659-1.591s0.994-0.659 1.591-0.659h4.5c0.597 0 1.169 0.237 1.591 0.659s0.659 0.994 0.659 1.591v4.5c0 0.597-0.237 1.169-0.659 1.591s-0.994 0.659-1.591 0.659h-4.5c-0.597 0-1.169-0.237-1.591-0.659s-0.659-0.994-0.659-1.591v-4.5zM15.75 15c-0.199 0-0.39 0.079-0.53 0.22s-0.22 0.331-0.22 0.53v4.5c0 0.199 0.079 0.39 0.22 0.53s0.331 0.22 0.53 0.22h4.5c0.199 0 0.39-0.079 0.53-0.22s0.22-0.331 0.22-0.53v-4.5c0-0.199-0.079-0.39-0.22-0.53s-0.331-0.22-0.53-0.22h-4.5z"></path>
</symbol>
<symbol id="icon-bi_grid-1" viewBox="0 0 24 24">
<path d="M9 1.5h-7.5v21h7.5v-21zM22.5 1.5h-7.5v7.5h7.5v-7.5zM22.5 15v7.5h-7.5v-7.5h7.5zM0 1.5c0-0.398 0.158-0.779 0.439-1.061s0.663-0.439 1.061-0.439h7.5c0.398 0 0.779 0.158 1.061 0.439s0.439 0.663 0.439 1.061v21c0 0.398-0.158 0.779-0.439 1.061s-0.663 0.439-1.061 0.439h-7.5c-0.398 0-0.779-0.158-1.061-0.439s-0.439-0.663-0.439-1.061v-21zM13.5 1.5c0-0.398 0.158-0.779 0.439-1.061s0.663-0.439 1.061-0.439h7.5c0.398 0 0.779 0.158 1.061 0.439s0.439 0.663 0.439 1.061v7.5c0 0.398-0.158 0.779-0.439 1.061s-0.663 0.439-1.061 0.439h-7.5c-0.398 0-0.779-0.158-1.061-0.439s-0.439-0.663-0.439-1.061v-7.5zM15 13.5c-0.398 0-0.779 0.158-1.061 0.439s-0.439 0.663-0.439 1.061v7.5c0 0.398 0.158 0.779 0.439 1.061s0.663 0.439 1.061 0.439h7.5c0.398 0 0.779-0.158 1.061-0.439s0.439-0.663 0.439-1.061v-7.5c0-0.398-0.158-0.779-0.439-1.061s-0.663-0.439-1.061-0.439h-7.5z"></path>
</symbol>
<symbol id="icon-bi_grid-3" viewBox="0 0 24 24">
<path d="M6 3v3h-3v-3h3zM7.5 21v-3c0-0.398-0.158-0.779-0.439-1.061s-0.663-0.439-1.061-0.439h-3c-0.398 0-0.779 0.158-1.061 0.439s-0.439 0.663-0.439 1.061v3c0 0.398 0.158 0.779 0.439 1.061s0.663 0.439 1.061 0.439h3c0.398 0 0.779-0.158 1.061-0.439s0.439-0.663 0.439-1.061zM7.5 13.5v-3c0-0.398-0.158-0.779-0.439-1.061s-0.663-0.439-1.061-0.439h-3c-0.398 0-0.779 0.158-1.061 0.439s-0.439 0.663-0.439 1.061v3c0 0.398 0.158 0.779 0.439 1.061s0.663 0.439 1.061 0.439h3c0.398 0 0.779-0.158 1.061-0.439s0.439-0.663 0.439-1.061zM7.5 6v-3c0-0.398-0.158-0.779-0.439-1.061s-0.663-0.439-1.061-0.439h-3c-0.398 0-0.779 0.158-1.061 0.439s-0.439 0.663-0.439 1.061v3c0 0.398 0.158 0.779 0.439 1.061s0.663 0.439 1.061 0.439h3c0.398 0 0.779-0.158 1.061-0.439s0.439-0.663 0.439-1.061zM15 21v-3c0-0.398-0.158-0.779-0.439-1.061s-0.663-0.439-1.061-0.439h-3c-0.398 0-0.779 0.158-1.061 0.439s-0.439 0.663-0.439 1.061v3c0 0.398 0.158 0.779 0.439 1.061s0.663 0.439 1.061 0.439h3c0.398 0 0.779-0.158 1.061-0.439s0.439-0.663 0.439-1.061zM15 13.5v-3c0-0.398-0.158-0.779-0.439-1.061s-0.663-0.439-1.061-0.439h-3c-0.398 0-0.779 0.158-1.061 0.439s-0.439 0.663-0.439 1.061v3c0 0.398 0.158 0.779 0.439 1.061s0.663 0.439 1.061 0.439h3c0.398 0 0.779-0.158 1.061-0.439s0.439-0.663 0.439-1.061zM15 6v-3c0-0.398-0.158-0.779-0.439-1.061s-0.663-0.439-1.061-0.439h-3c-0.398 0-0.779 0.158-1.061 0.439s-0.439 0.663-0.439 1.061v3c0 0.398 0.158 0.779 0.439 1.061s0.663 0.439 1.061 0.439h3c0.398 0 0.779-0.158 1.061-0.439s0.439-0.663 0.439-1.061zM13.5 3v3h-3v-3h3zM21 3v3h-3v-3h3zM6 10.5v3h-3v-3h3zM13.5 10.5v3h-3v-3h3zM21 10.5h-3v3h3v-3zM6 18v3h-3v-3h3zM13.5 18v3h-3v-3h3zM21 18v3h-3v-3h3zM18 1.5c-0.398 0-0.779 0.158-1.061 0.439s-0.439 0.663-0.439 1.061v3c0 0.398 0.158 0.779 0.439 1.061s0.663 0.439 1.061 0.439h3c0.398 0 0.779-0.158 1.061-0.439s0.439-0.663 0.439-1.061v-3c0-0.398-0.158-0.779-0.439-1.061s-0.663-0.439-1.061-0.439h-3zM16.5 10.5c0-0.398 0.158-0.779 0.439-1.061s0.663-0.439 1.061-0.439h3c0.398 0 0.779 0.158 1.061 0.439s0.439 0.663 0.439 1.061v3c0 0.398-0.158 0.779-0.439 1.061s-0.663 0.439-1.061 0.439h-3c-0.398 0-0.779-0.158-1.061-0.439s-0.439-0.663-0.439-1.061v-3zM18 16.5c-0.398 0-0.779 0.158-1.061 0.439s-0.439 0.663-0.439 1.061v3c0 0.398 0.158 0.779 0.439 1.061s0.663 0.439 1.061 0.439h3c0.398 0 0.779-0.158 1.061-0.439s0.439-0.663 0.439-1.061v-3c0-0.398-0.158-0.779-0.439-1.061s-0.663-0.439-1.061-0.439h-3z"></path>
</symbol>
<symbol id="icon-cup-hot" viewBox="0 0 24 24">
<path d="M0.75 9c-0.112 0-0.223 0.025-0.324 0.074s-0.19 0.119-0.26 0.207c-0.070 0.087-0.12 0.19-0.145 0.299s-0.026 0.223-0.002 0.332l2.478 11.151c0.185 0.833 0.648 1.578 1.314 2.112s1.493 0.825 2.346 0.825h8.688c0.853-0 1.681-0.291 2.346-0.825s1.129-1.279 1.314-2.112l0.197-0.885c1.147 0.215 2.333-0.025 3.307-0.668s1.66-1.64 1.913-2.779c0.253-1.14 0.053-2.333-0.557-3.328s-1.583-1.714-2.713-2.005l0.331-1.485c0.024-0.11 0.024-0.223-0.002-0.332s-0.075-0.211-0.145-0.299c-0.070-0.088-0.159-0.158-0.26-0.207s-0.212-0.074-0.324-0.074h-19.5zM19.5 18.75c-0.159 0-0.317-0.012-0.474-0.038l1.301-5.847c0.694 0.201 1.292 0.645 1.684 1.252s0.553 1.334 0.453 2.049c-0.1 0.715-0.455 1.37-1 1.845s-1.242 0.737-1.964 0.739zM3.96 20.737l-2.276-10.237h17.631l-2.276 10.237c-0.111 0.5-0.389 0.947-0.788 1.267s-0.896 0.495-1.408 0.495h-8.688c-0.512-0-1.009-0.175-1.408-0.495s-0.677-0.767-0.788-1.267z"></path>
<path d="M6.6 1.2l-0.005 0.006-0.021 0.029c-0.109 0.15-0.211 0.305-0.306 0.465-0.080 0.128-0.151 0.262-0.212 0.4-0.039 0.090-0.051 0.138-0.056 0.155v0.006c0.017 0.133 0.064 0.26 0.137 0.372 0.112 0.2 0.267 0.408 0.462 0.667l0.015 0.018c0.177 0.237 0.39 0.521 0.555 0.815 0.168 0.3 0.33 0.682 0.33 1.117 0 0.282-0.098 0.552-0.178 0.741-0.087 0.201-0.188 0.396-0.303 0.582-0.118 0.197-0.244 0.388-0.38 0.573l-0.027 0.038-0.007 0.012-0.003 0.003c-0.119 0.159-0.297 0.265-0.494 0.293s-0.397-0.023-0.556-0.142c-0.159-0.119-0.265-0.297-0.293-0.494s0.023-0.397 0.142-0.556l0.005-0.006 0.021-0.028c0.109-0.15 0.211-0.305 0.306-0.465 0.080-0.128 0.151-0.262 0.212-0.401 0.039-0.090 0.051-0.138 0.056-0.154-0.016-0.135-0.062-0.264-0.135-0.378-0.139-0.233-0.294-0.456-0.464-0.667l-0.015-0.018c-0.203-0.259-0.388-0.531-0.555-0.815-0.204-0.338-0.318-0.723-0.33-1.118 0-0.282 0.097-0.552 0.178-0.741 0.088-0.207 0.201-0.411 0.303-0.582 0.119-0.196 0.246-0.387 0.38-0.573l0.038-0.052c0.119-0.159 0.297-0.265 0.494-0.293s0.397 0.023 0.556 0.142c0.159 0.119 0.265 0.297 0.293 0.494s-0.023 0.397-0.142 0.556zM11.1 1.2l-0.005 0.006-0.021 0.029c-0.109 0.15-0.211 0.305-0.306 0.465-0.080 0.128-0.151 0.262-0.211 0.4-0.039 0.090-0.051 0.138-0.056 0.155v0.006c0.017 0.133 0.064 0.26 0.137 0.372 0.112 0.2 0.267 0.408 0.462 0.667l0.015 0.018c0.177 0.237 0.39 0.521 0.555 0.815 0.168 0.3 0.33 0.682 0.33 1.117 0 0.282-0.098 0.552-0.178 0.741-0.087 0.201-0.188 0.396-0.303 0.582-0.118 0.197-0.244 0.388-0.38 0.573l-0.027 0.038-0.007 0.012-0.003 0.003c-0.119 0.159-0.297 0.265-0.494 0.293s-0.397-0.023-0.556-0.142-0.265-0.297-0.293-0.494c-0.028-0.197 0.022-0.397 0.142-0.556l0.005-0.006 0.021-0.028c0.109-0.15 0.211-0.305 0.306-0.465 0.080-0.128 0.151-0.262 0.212-0.401 0.039-0.090 0.051-0.138 0.055-0.154-0.016-0.135-0.062-0.264-0.135-0.378-0.139-0.233-0.294-0.456-0.464-0.667l-0.015-0.018c-0.203-0.259-0.388-0.531-0.555-0.815-0.204-0.338-0.318-0.723-0.33-1.118 0-0.282 0.098-0.552 0.178-0.741 0.088-0.207 0.201-0.411 0.303-0.582 0.119-0.196 0.246-0.387 0.38-0.573l0.038-0.052c0.119-0.159 0.297-0.265 0.494-0.293s0.397 0.023 0.556 0.142 0.265 0.297 0.293 0.494c0.028 0.197-0.023 0.397-0.142 0.556zM15.6 1.2l-0.005 0.006-0.021 0.029c-0.109 0.15-0.211 0.305-0.306 0.465-0.080 0.128-0.151 0.262-0.211 0.4-0.039 0.090-0.051 0.138-0.056 0.155v0.006c0.017 0.133 0.064 0.26 0.136 0.372 0.112 0.2 0.267 0.408 0.462 0.667l0.015 0.018c0.177 0.237 0.39 0.521 0.555 0.815 0.168 0.3 0.33 0.682 0.33 1.117 0 0.282-0.098 0.552-0.178 0.741-0.087 0.201-0.188 0.396-0.303 0.582-0.117 0.197-0.243 0.388-0.378 0.573l-0.028 0.038-0.008 0.012-0.003 0.003c-0.119 0.159-0.297 0.265-0.494 0.293s-0.397-0.023-0.556-0.142-0.265-0.297-0.293-0.494c-0.028-0.197 0.023-0.397 0.142-0.556l0.005-0.006 0.021-0.028c0.109-0.15 0.211-0.305 0.306-0.465 0.080-0.128 0.151-0.262 0.212-0.401 0.039-0.090 0.051-0.138 0.056-0.154-0.016-0.135-0.062-0.264-0.135-0.378-0.139-0.233-0.294-0.456-0.463-0.667l-0.015-0.018c-0.203-0.259-0.388-0.531-0.555-0.815-0.204-0.338-0.318-0.723-0.33-1.118 0-0.282 0.098-0.552 0.178-0.741 0.088-0.207 0.201-0.411 0.303-0.582 0.119-0.196 0.246-0.387 0.38-0.573l0.038-0.052c0.119-0.159 0.297-0.265 0.494-0.293s0.397 0.023 0.556 0.142 0.265 0.297 0.293 0.494c0.028 0.197-0.023 0.397-0.142 0.556z"></path>
</symbol>
<symbol id="icon-diagram" viewBox="0 0 24 24">
<path d="M9 5.25c0-0.597 0.237-1.169 0.659-1.591s0.994-0.659 1.591-0.659h1.5c0.597 0 1.169 0.237 1.591 0.659s0.659 0.994 0.659 1.591v1.5c0 0.597-0.237 1.169-0.659 1.591s-0.994 0.659-1.591 0.659v1.5h8.25c0.199 0 0.39 0.079 0.53 0.22s0.22 0.331 0.22 0.53v1.5c0 0.199-0.079 0.39-0.22 0.53s-0.331 0.22-0.53 0.22c-0.199 0-0.39-0.079-0.53-0.22s-0.22-0.331-0.22-0.53v-0.75h-7.5v0.75c0 0.199-0.079 0.39-0.22 0.53s-0.331 0.22-0.53 0.22c-0.199 0-0.39-0.079-0.53-0.22s-0.22-0.331-0.22-0.53v-0.75h-7.5v0.75c0 0.199-0.079 0.39-0.22 0.53s-0.331 0.22-0.53 0.22c-0.199 0-0.39-0.079-0.53-0.22s-0.22-0.331-0.22-0.53v-1.5c0-0.199 0.079-0.39 0.22-0.53s0.331-0.22 0.53-0.22h8.25v-1.5c-0.597 0-1.169-0.237-1.591-0.659s-0.659-0.994-0.659-1.591v-1.5zM12.75 7.5c0.199 0 0.39-0.079 0.53-0.22s0.22-0.331 0.22-0.53v-1.5c0-0.199-0.079-0.39-0.22-0.53s-0.331-0.22-0.53-0.22h-1.5c-0.199 0-0.39 0.079-0.53 0.22s-0.22 0.331-0.22 0.53v1.5c0 0.199 0.079 0.39 0.22 0.53s0.331 0.22 0.53 0.22h1.5zM0 17.25c0-0.597 0.237-1.169 0.659-1.591s0.994-0.659 1.591-0.659h1.5c0.597 0 1.169 0.237 1.591 0.659s0.659 0.994 0.659 1.591v1.5c0 0.597-0.237 1.169-0.659 1.591s-0.994 0.659-1.591 0.659h-1.5c-0.597 0-1.169-0.237-1.591-0.659s-0.659-0.994-0.659-1.591v-1.5zM2.25 16.5c-0.199 0-0.39 0.079-0.53 0.22s-0.22 0.331-0.22 0.53v1.5c0 0.199 0.079 0.39 0.22 0.53s0.331 0.22 0.53 0.22h1.5c0.199 0 0.39-0.079 0.53-0.22s0.22-0.331 0.22-0.53v-1.5c0-0.199-0.079-0.39-0.22-0.53s-0.331-0.22-0.53-0.22h-1.5zM9 17.25c0-0.597 0.237-1.169 0.659-1.591s0.994-0.659 1.591-0.659h1.5c0.597 0 1.169 0.237 1.591 0.659s0.659 0.994 0.659 1.591v1.5c0 0.597-0.237 1.169-0.659 1.591s-0.994 0.659-1.591 0.659h-1.5c-0.597 0-1.169-0.237-1.591-0.659s-0.659-0.994-0.659-1.591v-1.5zM11.25 16.5c-0.199 0-0.39 0.079-0.53 0.22s-0.22 0.331-0.22 0.53v1.5c0 0.199 0.079 0.39 0.22 0.53s0.331 0.22 0.53 0.22h1.5c0.199 0 0.39-0.079 0.53-0.22s0.22-0.331 0.22-0.53v-1.5c0-0.199-0.079-0.39-0.22-0.53s-0.331-0.22-0.53-0.22h-1.5zM18 17.25c0-0.597 0.237-1.169 0.659-1.591s0.994-0.659 1.591-0.659h1.5c0.597 0 1.169 0.237 1.591 0.659s0.659 0.994 0.659 1.591v1.5c0 0.597-0.237 1.169-0.659 1.591s-0.994 0.659-1.591 0.659h-1.5c-0.597 0-1.169-0.237-1.591-0.659s-0.659-0.994-0.659-1.591v-1.5zM20.25 16.5c-0.199 0-0.39 0.079-0.53 0.22s-0.22 0.331-0.22 0.53v1.5c0 0.199 0.079 0.39 0.22 0.53s0.331 0.22 0.53 0.22h1.5c0.199 0 0.39-0.079 0.53-0.22s0.22-0.331 0.22-0.53v-1.5c0-0.199-0.079-0.39-0.22-0.53s-0.331-0.22-0.53-0.22h-1.5z"></path>
</symbol>
<symbol id="icon-heart" viewBox="0 0 24 24">
<path d="M12 10.019l-1.238-2.477c-0.307-0.613-0.84-1.495-1.595-2.208-0.742-0.702-1.631-1.18-2.706-1.18-2.321 0-4.154 1.836-4.154 4.043 0 1.677 0.767 2.861 2.586 4.666 0.467 0.462 0.998 0.962 1.587 1.513 1.534 1.44 3.442 3.232 5.519 5.627 2.077-2.395 3.985-4.187 5.519-5.627 0.588-0.551 1.122-1.052 1.587-1.513 1.819-1.806 2.586-2.989 2.586-4.666 0-2.207-1.833-4.043-4.154-4.043-1.076 0-1.963 0.478-2.706 1.18-0.755 0.713-1.288 1.595-1.595 2.208l-1.238 2.477zM12.543 21.5c-0.067 0.079-0.15 0.142-0.244 0.186s-0.196 0.066-0.299 0.066-0.205-0.023-0.299-0.066c-0.094-0.044-0.177-0.107-0.244-0.186-2.217-2.634-4.223-4.517-5.875-6.066-2.859-2.685-4.659-4.373-4.659-7.237 0-2.998 2.478-5.428 5.538-5.428 2.215 0 3.765 1.454 4.713 2.78 0.36 0.505 0.634 0.991 0.825 1.374 0.24-0.478 0.516-0.937 0.825-1.374 0.948-1.328 2.498-2.78 4.713-2.78 3.060 0 5.538 2.43 5.538 5.428 0 2.865-1.8 4.553-4.659 7.237-1.652 1.551-3.658 3.435-5.875 6.066z"></path>
</symbol>
<symbol id="icon-ph-shower" viewBox="0 0 24 24">
<path d="M6 22.125c0 0.223-0.066 0.44-0.19 0.625s-0.299 0.329-0.505 0.414-0.432 0.107-0.65 0.064c-0.218-0.043-0.419-0.151-0.576-0.308s-0.264-0.358-0.308-0.576c-0.043-0.218-0.021-0.444 0.064-0.65s0.229-0.381 0.414-0.505c0.185-0.124 0.403-0.19 0.625-0.19 0.298 0 0.585 0.119 0.795 0.329s0.33 0.497 0.33 0.796zM7.875 18c-0.223 0-0.44 0.066-0.625 0.19s-0.329 0.299-0.414 0.505c-0.085 0.206-0.107 0.432-0.064 0.65s0.151 0.419 0.308 0.576c0.157 0.157 0.358 0.264 0.576 0.308s0.444 0.021 0.65-0.064 0.381-0.229 0.505-0.414c0.124-0.185 0.19-0.403 0.19-0.625 0-0.298-0.118-0.585-0.329-0.796s-0.497-0.329-0.796-0.329zM1.875 18c-0.222 0-0.44 0.066-0.625 0.19s-0.329 0.299-0.414 0.505c-0.085 0.206-0.107 0.432-0.064 0.65s0.151 0.419 0.308 0.576c0.157 0.157 0.358 0.264 0.576 0.308s0.444 0.021 0.65-0.064c0.206-0.085 0.381-0.229 0.505-0.414s0.19-0.403 0.19-0.625c0-0.298-0.119-0.585-0.33-0.796s-0.497-0.329-0.795-0.329zM4.875 15c-0.222 0-0.44 0.066-0.625 0.19s-0.329 0.299-0.414 0.505c-0.085 0.206-0.107 0.432-0.064 0.65s0.151 0.419 0.308 0.576c0.157 0.157 0.358 0.264 0.576 0.308s0.444 0.021 0.65-0.064c0.206-0.085 0.381-0.229 0.505-0.414s0.19-0.403 0.19-0.625c0-0.298-0.119-0.585-0.33-0.796s-0.497-0.329-0.795-0.329zM24 3.75c0 0.199-0.079 0.39-0.22 0.53s-0.331 0.22-0.53 0.22h-2.69l-2.611 2.612-2.031 11.887c-0.046 0.272-0.165 0.525-0.346 0.733s-0.415 0.363-0.677 0.446c-0.262 0.084-0.543 0.094-0.81 0.029s-0.512-0.202-0.707-0.397l-9.188-9.188c-0.195-0.195-0.333-0.44-0.397-0.708s-0.055-0.549 0.029-0.811c0.084-0.263 0.239-0.497 0.448-0.677s0.463-0.299 0.735-0.345l11.882-2.032 2.831-2.831c0.070-0.070 0.152-0.125 0.243-0.162s0.189-0.057 0.287-0.057h3c0.199 0 0.39 0.079 0.53 0.22s0.22 0.331 0.22 0.53zM16.332 7.668l-11.082 1.895 9.188 9.188 1.895-11.082z"></path>
</symbol>
<symbol id="icon-tv" viewBox="0 0 24 24">
<path d="M0 6c0 0 0-3 3-3h18c0 0 3 0 3 3v9c0 0 0 3-3 3h-6c0 1 0.125 1.75 0.375 2.25h1.125c0.199 0 0.39 0.079 0.53 0.22s0.22 0.331 0.22 0.53c0 0.199-0.079 0.39-0.22 0.53s-0.331 0.22-0.53 0.22h-9c-0.199 0-0.39-0.079-0.53-0.22s-0.22-0.331-0.22-0.53c0-0.199 0.079-0.39 0.22-0.53s0.331-0.22 0.53-0.22h1.125c0.25-0.5 0.375-1.25 0.375-2.25h-6c0 0-3 0-3-3v-9zM2.097 4.718c-0.165 0.115-0.296 0.271-0.381 0.453-0.126 0.265-0.2 0.552-0.216 0.844v8.985c0 0.487 0.117 0.753 0.218 0.903 0.105 0.156 0.256 0.283 0.453 0.381 0.253 0.121 0.527 0.194 0.807 0.215l0.037 0.002h17.985c0.487 0 0.753-0.117 0.903-0.218 0.165-0.115 0.296-0.271 0.381-0.453 0.121-0.253 0.194-0.527 0.215-0.807l0.002-0.038v-8.985c0-0.488-0.117-0.753-0.218-0.903-0.115-0.165-0.271-0.296-0.453-0.381-0.265-0.126-0.552-0.2-0.845-0.216h-17.985c-0.487 0-0.753 0.117-0.903 0.218z"></path>
</symbol>
<symbol id="icon-wind" viewBox="0 0 24 24">
<path d="M18.75 3c-0.995 0-1.948 0.395-2.652 1.098s-1.098 1.657-1.098 2.652c0 0.199-0.079 0.39-0.22 0.53s-0.331 0.22-0.53 0.22c-0.199 0-0.39-0.079-0.53-0.22s-0.22-0.331-0.22-0.53c0-1.038 0.308-2.053 0.885-2.917s1.397-1.536 2.356-1.934c0.959-0.397 2.015-0.501 3.033-0.299s1.954 0.703 2.688 1.437c0.734 0.734 1.234 1.67 1.437 2.688s0.099 2.074-0.299 3.033c-0.397 0.959-1.070 1.779-1.934 2.356s-1.878 0.885-2.917 0.885h-18c-0.199 0-0.39-0.079-0.53-0.22s-0.22-0.331-0.22-0.53c0-0.199 0.079-0.39 0.22-0.53s0.331-0.22 0.53-0.22h18c0.995 0 1.948-0.395 2.652-1.098s1.098-1.657 1.098-2.652-0.395-1.948-1.098-2.652c-0.703-0.703-1.657-1.098-2.652-1.098zM8.25 4.5c-0.398 0-0.779 0.158-1.061 0.439s-0.439 0.663-0.439 1.061c0 0.199-0.079 0.39-0.22 0.53s-0.331 0.22-0.53 0.22c-0.199 0-0.39-0.079-0.53-0.22s-0.22-0.331-0.22-0.53c0-0.593 0.176-1.173 0.506-1.667s0.798-0.878 1.346-1.105c0.548-0.227 1.151-0.286 1.733-0.171s1.116 0.401 1.536 0.821 0.705 0.954 0.821 1.536c0.116 0.582 0.056 1.185-0.171 1.733s-0.612 1.017-1.105 1.346-1.073 0.506-1.667 0.506h-7.5c-0.199 0-0.39-0.079-0.53-0.22s-0.22-0.331-0.22-0.53c0-0.199 0.079-0.39 0.22-0.53s0.331-0.22 0.53-0.22h7.5c0.398 0 0.779-0.158 1.061-0.439s0.439-0.663 0.439-1.061c0-0.398-0.158-0.779-0.439-1.061s-0.663-0.439-1.061-0.439zM0 14.25c0-0.199 0.079-0.39 0.22-0.53s0.331-0.22 0.53-0.22h15.063c0.89 0 1.76 0.264 2.5 0.758s1.317 1.197 1.657 2.020c0.341 0.822 0.43 1.727 0.256 2.6s-0.602 1.675-1.232 2.304c-0.629 0.629-1.431 1.058-2.304 1.232s-1.778 0.085-2.6-0.256-1.525-0.917-2.020-1.657c-0.494-0.74-0.758-1.61-0.758-2.5 0-0.199 0.079-0.39 0.22-0.53s0.331-0.22 0.53-0.22c0.199 0 0.39 0.079 0.53 0.22s0.22 0.331 0.22 0.53c0 0.593 0.176 1.173 0.506 1.667s0.798 0.878 1.346 1.105c0.548 0.227 1.151 0.287 1.733 0.171s1.116-0.401 1.536-0.821 0.705-0.954 0.821-1.536c0.116-0.582 0.056-1.185-0.171-1.733s-0.612-1.017-1.105-1.346-1.073-0.506-1.667-0.506h-15.063c-0.199 0-0.39-0.079-0.53-0.22s-0.22-0.331-0.22-0.53z"></path>
</symbol>
<symbol id="icon-Map" viewBox="0 0 20 20">
<path d="M19.771 0.141c0.072 0.059 0.129 0.132 0.169 0.216s0.060 0.175 0.060 0.268v17.5c-0 0.144-0.050 0.284-0.142 0.396s-0.219 0.188-0.361 0.217l-6.25 1.25c-0.081 0.016-0.164 0.016-0.245 0l-6.128-1.225-6.127 1.225c-0.091 0.018-0.184 0.016-0.274-0.007s-0.173-0.064-0.245-0.123c-0.072-0.058-0.129-0.132-0.169-0.216s-0.060-0.175-0.060-0.267v-17.5c0-0.144 0.050-0.284 0.142-0.396s0.219-0.188 0.361-0.216l6.25-1.25c0.081-0.016 0.164-0.016 0.245 0l6.127 1.225 6.128-1.225c0.091-0.018 0.184-0.016 0.274 0.006s0.173 0.064 0.245 0.123zM12.5 2.387l-5-1v16.225l5 1v-16.225zM13.75 18.612l5-1v-16.225l-5 1v16.225zM6.25 17.612v-16.225l-5 1v16.225l5-1z"></path>
</symbol>
</defs>
</svg>
